<?xml version="1.0" standalone="no"?>
<!DOCTYPE svg PUBLIC "-//W3C//DTD SVG 20010904//EN"
 "http://www.w3.org/TR/2001/REC-SVG-20010904/DTD/svg10.dtd">
<svg version="1.0" xmlns="http://www.w3.org/2000/svg"
 width="1538.000000pt" height="1538.000000pt" viewBox="0 0 1538.000000 1538.000000"
 preserveAspectRatio="xMidYMid meet">
<metadata>
Created by potrace 1.14, written by Peter Selinger 2001-2017
</metadata>
<g transform="translate(0.000000,1538.000000) scale(0.100000,-0.100000)"
fill="#000000" stroke="none">
<path d="M7560 14922 c-58 -15 -108 -40 -233 -115 -20 -12 -198 -118 -395
-236 -196 -118 -373 -224 -392 -236 -36 -24 -354 -214 -426 -256 -22 -13 -134
-80 -247 -149 -114 -69 -220 -131 -235 -139 -15 -8 -29 -17 -32 -21 -3 -4 -10
-9 -16 -11 -5 -2 -171 -101 -368 -219 -196 -118 -376 -226 -399 -239 -141 -80
-217 -149 -266 -241 -104 -194 -72 -435 77 -586 92 -93 221 -152 338 -154 l21
0 1 -2212 c0 -2046 1 -2218 17 -2278 46 -179 182 -324 360 -387 47 -17 184
-18 2295 -20 1933 -2 2254 -1 2306 12 190 44 324 167 396 362 l22 58 2 2210
c2 1216 3 2220 3 2233 1 17 7 22 29 22 42 0 137 27 197 56 205 101 312 343
254 573 -11 41 -27 83 -37 94 -9 10 -16 21 -14 23 2 3 -12 26 -31 53 -40 55
-95 102 -187 157 -36 21 -72 44 -81 49 -9 6 -34 20 -55 33 -92 54 -316 188
-345 207 -9 5 -50 29 -90 53 -41 24 -105 63 -144 88 -38 24 -79 48 -90 54 -11
5 -37 20 -57 32 -103 63 -320 194 -335 203 -10 6 -100 60 -201 120 -100 61
-196 118 -212 127 -16 9 -120 72 -232 139 -112 67 -214 129 -228 137 -14 7
-60 35 -102 60 -316 191 -499 299 -533 316 -93 45 -228 57 -335 28z"/>
<path d="M3535 7910 c-22 -5 -61 -17 -86 -28 -25 -11 -520 -304 -1100 -652
-580 -348 -1066 -640 -1081 -649 -15 -9 -87 -52 -160 -96 -72 -44 -143 -87
-157 -95 -14 -9 -48 -29 -76 -45 -27 -17 -57 -34 -67 -40 -116 -67 -181 -111
-221 -150 -197 -196 -197 -509 1 -709 59 -60 164 -118 237 -132 22 -5 43 -9
48 -10 4 -1 20 -2 35 -3 l29 -1 0 -2197 c0 -1209 3 -2220 7 -2246 23 -162 142
-325 291 -397 135 -65 -55 -60 2391 -60 1585 0 2238 3 2276 11 162 34 301 139
373 284 67 134 62 -28 61 2398 l-1 2207 30 1 c38 1 49 3 121 24 213 61 362
277 348 505 -7 129 -73 265 -166 344 -32 28 -1131 695 -1340 815 -18 10 -116
68 -217 130 -101 61 -185 111 -188 111 -2 0 -31 18 -64 40 -33 22 -62 40 -64
40 -2 0 -54 31 -117 69 -62 38 -129 78 -148 89 -19 11 -118 70 -219 131 -101
61 -186 111 -188 111 -2 0 -31 18 -64 40 -33 22 -62 40 -64 40 -1 0 -32 17
-66 38 -102 62 -172 84 -269 87 -47 1 -103 -1 -125 -5z"/>
<path d="M11620 7906 c-82 -24 -110 -40 -820 -466 -388 -232 -718 -431 -735
-440 -16 -10 -253 -152 -525 -315 -272 -164 -504 -303 -515 -309 -122 -67
-301 -185 -343 -226 -146 -146 -184 -376 -92 -565 75 -153 189 -240 360 -275
l85 -17 1 -2179 c1 -1198 4 -2207 8 -2241 20 -197 159 -368 362 -445 l59 -23
2245 -2 c1914 -2 2254 -1 2305 12 197 46 336 177 401 375 17 52 18 172 19
2278 1 1222 4 2224 6 2226 2 2 29 7 59 11 159 20 296 114 374 257 106 194 72
434 -83 588 -46 46 -298 201 -1441 886 -762 457 -1412 841 -1445 853 -74 28
-218 37 -285 17z"/>
</g>
</svg>
